<?xml version="1.0" encoding="UTF-8" standalone="no"?>
<!-- Created with Inkscape (http://www.inkscape.org/) -->

<svg
   version="1.1"
   id="svg2"
   width="1024"
   height="1024"
   viewBox="0 0 1024 1024"
   sodipodi:docname="play.svg"
   inkscape:version="1.2.1 (9c6d41e410, 2022-07-14)"
   xmlns:inkscape="http://www.inkscape.org/namespaces/inkscape"
   xmlns:sodipodi="http://sodipodi.sourceforge.net/DTD/sodipodi-0.dtd"
   xmlns="http://www.w3.org/2000/svg"
   xmlns:svg="http://www.w3.org/2000/svg">
  <defs
     id="defs6" />
  <sodipodi:namedview
     id="namedview4"
     pagecolor="#ffffff"
     bordercolor="#000000"
     borderopacity="0.25"
     inkscape:showpageshadow="2"
     inkscape:pageopacity="0.0"
     inkscape:pagecheckerboard="0"
     inkscape:deskcolor="#d1d1d1"
     showgrid="false"
     inkscape:zoom="0.28898847"
     inkscape:cx="-173.01729"
     inkscape:cy="-83.048297"
     inkscape:window-width="1920"
     inkscape:window-height="1017"
     inkscape:window-x="1912"
     inkscape:window-y="-8"
     inkscape:window-maximized="1"
     inkscape:current-layer="g8" />
  <g
     inkscape:groupmode="layer"
     inkscape:label="Image"
     id="g8">
    <path
       id="path416"
       style="fill:#ffffff;stroke:#ffffff;stroke-width:6.92069;stroke-linecap:round"
       d="m 227.17729,129.99439 c -6.70464,0.49333 -13.35331,4.11141 -18.26562,10.20703 l -5.35742,6.65039 V 512.1897 877.52759 l 4.32617,5.85352 c 2.37899,3.21919 6.66085,6.88676 9.51562,8.15039 11.98094,5.30322 19.57896,3.09765 44.11914,-12.81055 5.23377,-3.39279 12.24169,-7.87623 15.57227,-9.96289 10.33978,-6.47797 31.71344,-20.00166 38.0625,-24.08203 19.31404,-12.41258 106.96772,-67.58631 109.86719,-69.15625 1.90318,-1.0305 6.96391,-4.12989 11.24609,-6.88867 4.28218,-2.75878 10.51122,-6.73761 13.8418,-8.8418 3.33057,-2.10419 11.89429,-7.51656 19.03125,-12.02539 7.13696,-4.50882 15.70067,-9.94772 19.03125,-12.08789 41.28845,-26.53132 111.21602,-70.09375 112.51562,-70.09375 0.92204,0 1.67677,-0.58513 1.67774,-1.29883 9.7e-4,-0.7137 4.08908,-3.58273 9.08398,-6.375 4.9949,-2.79225 12.62377,-7.46355 16.95313,-10.38086 4.32936,-2.91729 9.17946,-6.0816 10.77734,-7.0332 3.71307,-2.21128 27.92076,-17.43806 35.85156,-22.55078 33.56863,-21.64048 97.36384,-61.36328 98.55078,-61.36328 0.83098,0 1.77068,-0.58318 2.08789,-1.29688 0.82948,-1.86631 14.87611,-10.81445 16.97657,-10.81445 0.972,0 1.76562,-0.58544 1.76562,-1.30078 0,-0.71532 3.6247,-3.22122 8.05274,-5.57031 17.61773,-9.34617 23.27531,-27.34408 12.64843,-40.23633 -2.88912,-3.50502 -13.80588,-11.66326 -24.25781,-18.12891 -10.45192,-6.46563 -23.46502,-14.64002 -28.91797,-18.16406 -5.45294,-3.52401 -14.19592,-8.92179 -19.42968,-11.99609 -5.23378,-3.07431 -9.90506,-6.10811 -10.38086,-6.74219 -0.4758,-0.63407 -2.81242,-2.16578 -5.19141,-3.40235 -3.79944,-1.97488 -12.88637,-7.64847 -34.60352,-21.60546 -3.33057,-2.14047 -28.63423,-18.10849 -56.23047,-35.48438 -27.59622,-17.3759 -54.0682,-34.07214 -58.82617,-37.10351 -9.8386,-6.26835 -20.03592,-12.66384 -35.79687,-22.45118 -6.0046,-3.72877 -14.8104,-9.27427 -19.56836,-12.32226 -4.75798,-3.04798 -26.94614,-17.03846 -49.3086,-31.0918 -22.36246,-14.05333 -47.5035,-29.92102 -55.86718,-35.25976 -16.32458,-10.42038 -26.51924,-16.83252 -49.67383,-31.24219 -8.08854,-5.03371 -17.43114,-10.91732 -20.76172,-13.07422 -46.44886,-30.08053 -107.7199,-67.52603 -112.45508,-68.72656 -2.1855,-0.55411 -4.42723,-0.73671 -6.66211,-0.57227 z" />
  </g>
</svg>
