<?xml version="1.0" encoding="UTF-8" standalone="no"?>
<!-- Created with Inkscape (http://www.inkscape.org/) -->

<svg
   version="1.1"
   id="svg2"
   width="320"
   height="320"
   viewBox="0 0 320 320"
   sodipodi:docname="restart.svg"
   inkscape:version="1.2.1 (9c6d41e410, 2022-07-14)"
   xmlns:inkscape="http://www.inkscape.org/namespaces/inkscape"
   xmlns:sodipodi="http://sodipodi.sourceforge.net/DTD/sodipodi-0.dtd"
   xmlns="http://www.w3.org/2000/svg"
   xmlns:svg="http://www.w3.org/2000/svg">
  <defs
     id="defs6" />
  <sodipodi:namedview
     id="namedview4"
     pagecolor="#ffffff"
     bordercolor="#000000"
     borderopacity="0.25"
     inkscape:showpageshadow="2"
     inkscape:pageopacity="0.0"
     inkscape:pagecheckerboard="0"
     inkscape:deskcolor="#d1d1d1"
     showgrid="false"
     inkscape:zoom="1.3078125"
     inkscape:cx="-58.112306"
     inkscape:cy="145.28076"
     inkscape:window-width="1920"
     inkscape:window-height="1017"
     inkscape:window-x="1912"
     inkscape:window-y="-8"
     inkscape:window-maximized="1"
     inkscape:current-layer="g8" />
  <g
     inkscape:groupmode="layer"
     inkscape:label="Image"
     id="g8">
    <path
       id="path362"
       style="fill:#ffffff;stroke:#ffffff;stroke-width:1.52927;stroke-linecap:round"
       d="m 120.86701,2.0199872 c -0.39379,-0.0116 -0.75,0.09167 -0.75,0.320313 0,0.181237 -1.1303,0.44636 -2.51172,0.58789 -1.38141,0.141531 -2.80094,0.407001 -3.15429,0.591797 -0.7899,0.413105 -4.09987,1.074238 -7.05664,1.408203 -1.21499,0.137233 -2.30048,0.397497 -2.41211,0.578125 -0.11164,0.180629 -0.68648,0.328125 -1.27735,0.328125 -1.57082,0 -7.755182,1.123149 -8.226562,1.494141 -0.22193,0.174663 -1.52189,0.43638 -2.88867,0.582031 -1.36679,0.145652 -3.24408,0.520642 -4.17188,0.832031 -0.92779,0.311391 -3.07866,0.739756 -4.7793,0.953125 -1.70063,0.213369 -3.43687,0.5402508 -3.85742,0.7265628 -0.42055,0.186312 -1.71067,0.447928 -2.86718,0.582031 -1.15651,0.134104 -3.22111,0.559194 -4.5879,0.943359 -1.36678,0.384167 -3.51764,0.812907 -4.77929,0.953125 -1.26165,0.140218 -3.06744,0.51277 -4.01367,0.828125 -0.94624,0.315355 -3.26769,0.752913 -5.16016,0.972656 -1.89247,0.219743 -3.61395,0.531735 -3.82422,0.69336 -0.21028,0.161625 -1.63093,0.416495 -3.15625,0.566406 -1.52533,0.149912 -2.86766,0.428337 -2.98438,0.617188 -0.11671,0.188849 -0.44896,0.341796 -0.73828,0.341796 -0.28931,0 -1.01157,0.188115 -1.60351,0.416016 -0.59195,0.227901 -2.26979,0.491498 -3.72852,0.585938 -1.45872,0.09444 -2.8473,0.335479 -3.08789,0.535156 -0.2406,0.199676 -2.14485,0.630482 -4.23047,0.958984 -2.08562,0.328503 -4.3949,0.75469 -5.13086,0.947266 -0.73596,0.192576 -2.36921,0.460069 -3.63086,0.59375 -1.26165,0.133682 -2.4655,0.376589 -2.67578,0.539062 -0.51141,0.395153 -3.67325,1.060201 -6.5,1.367188 -1.26165,0.137016 -2.46551,0.378669 -2.67578,0.539062 -0.21027,0.160394 -1.67294,0.567997 -3.25,0.904298 -6.8997898,1.471352 -7.3952898,1.617118 -7.8027298,2.291016 -0.32861,0.543505 -0.27395,0.796326 0.25195,1.1875 0.36798,0.273708 0.66797,0.682711 0.66797,0.908203 0,0.225493 0.3363,0.516421 0.74609,0.646484 0.40979,0.130064 0.83973,0.529494 0.95508,0.886719 0.11535,0.357225 0.72599,0.942541 1.35742,1.300781 0.63144,0.358242 1.34578,1.085804 1.58789,1.617188 0.24212,0.531384 0.75785,1.066104 1.1464898,1.189453 0.38863,0.12335 0.70703,0.358524 0.70703,0.521484 0,0.16296 1.64613,1.914393 3.6582,3.892578 2.01207,1.978186 3.86099,3.812117 4.10938,4.076172 0.24838,0.264055 1.45918,1.469868 2.68945,2.677735 1.23027,1.207867 2.60667,2.599169 3.05859,3.091796 2.04999,2.234611 3.2496,3.374688 4.21289,4.00586 0.57202,0.374797 1.23028,1.098851 1.46289,1.609375 0.23261,0.510523 0.7315,1.026547 1.10938,1.146484 0.37788,0.119937 0.78113,0.509966 0.89648,0.867188 0.11536,0.357226 0.72794,0.944495 1.35938,1.302734 0.63143,0.358243 1.34577,1.085805 1.58789,1.617189 0.24211,0.531382 0.73944,1.05961 1.10547,1.175781 0.36602,0.116171 0.88219,0.734978 1.14648,1.373047 0.67277,1.624191 0.28266,2.357155 -3.93555,7.40625 -0.57825,0.692154 -1.05078,1.422505 -1.05078,1.625 0,0.202494 -0.34068,0.677 -0.75586,1.052734 -0.41518,0.375734 -0.869,1.046803 -1.00976,1.492188 -0.26612,0.842024 -1.7601,2.96288 -2.91797,4.142578 -0.36798,0.374915 -0.66992,0.919317 -0.66992,1.208983 0,0.289663 -0.26364,0.744238 -0.58594,1.011719 -0.32229,0.267481 -0.97813,1.278751 -1.45898,2.246094 -1.21404,2.44232 -3.40448,6.467152 -4.38868,8.066406 -0.45292,0.735961 -0.92898,1.596698 -1.05859,1.912109 -0.1296,0.315412 -0.62392,1.433002 -1.09766,2.484375 -0.47373,1.051373 -1.08652,2.514039 -1.36132,3.25 -0.27481,0.735962 -0.67934,1.57406 -0.90039,1.861328 -0.45238,0.587892 -1.10044,2.255852 -2.14454,5.521482 -0.39049,1.22135 -0.87461,2.42522 -1.07617,2.67578 -0.20155,0.25057 -0.49369,1.05701 -0.64844,1.79297 -0.15474,0.73596 -0.54314,1.85064 -0.86328,2.47656 -0.32013,0.62591 -0.79592,2.00232 -1.05859,3.0586 -0.2626698,1.05627 -0.9329698,3.55512 -1.4882798,5.55273 -0.55531,1.99761 -1.18207,4.57787 -1.39258,5.73437 -0.21051,1.15651 -0.64144,2.79172 -0.95703,3.63282 -0.31559,0.8411 -0.81785,3.42134 -1.11719,5.73437 -0.29934,2.31302 -0.71303,5.23095 -0.91992,6.48438 -0.71997,4.36186 -0.88538,24.62359 -0.26562,32.51172 0.78705,10.01745 1.67671,16.43975 2.54492,18.35156 0.19098,0.42055 0.51581,1.71068 0.7207,2.86719 0.46079,2.60094 1.92789,8.38441 2.33984,9.2246 0.16773,0.34209 0.4243198,1.28715 0.5722698,2.10157 0.14795,0.81441 0.56795,2.08435 0.93164,2.82031 0.36369,0.73596 0.7796,1.98667 0.92383,2.78125 0.14423,0.79459 0.57924,2.0004 0.96875,2.67773 0.38951,0.67734 0.83263,1.8324 0.98242,2.56836 0.14979,0.73596 0.40196,1.51044 0.56055,1.72071 0.15859,0.21028 0.49601,1.02787 0.75,1.8164 0.25398,0.78853 0.59164,1.4336 0.75195,1.4336 0.16031,0 0.5274,0.71223 0.81445,1.58203 0.28706,0.86979 0.91588,2.36128 1.39844,3.31445 0.48256,0.95318 0.87695,1.93934 0.87695,2.19336 0,0.25403 0.25881,0.67768 0.57422,0.93945 0.31541,0.26177 0.57422,0.79856 0.57422,1.19336 0,0.39481 0.15673,0.7168 0.34961,0.7168 0.19288,0 0.65111,0.8176 1.01758,1.81641 0.36647,0.9988 0.88846,2.00045 1.16015,2.22656 0.43916,0.36547 1.25681,1.75713 3.97266,6.75781 0.42825,0.78854 0.9483,1.4336 1.1543,1.4336 0.206,0 0.37304,0.2588 0.37304,0.57421 0,0.31542 0.16556,0.57422 0.36719,0.57422 0.20163,0 0.66847,0.84879 1.03711,1.88672 0.42071,1.18453 0.99587,2.035 1.54492,2.28516 0.48111,0.21921 0.875,0.59439 0.875,0.83398 0,0.23959 0.52202,1.0605 1.16016,1.82422 1.78376,2.1348 1.89661,2.29088 1.9082,2.61523 0.006,0.16658 0.73729,1.10734 1.625,2.08985 2.35042,2.60141 3.33594,3.79306 3.33594,4.03906 0,0.11952 0.81565,1.10029 1.81445,2.17969 0.99881,1.07941 2.27275,2.47258 2.83008,3.0957 0.55734,0.62311 2.53567,2.62737 4.39649,4.45508 1.86082,1.82771 3.66532,3.63547 4.00976,4.01562 1.131,1.24833 6.00045,5.46947 6.32227,5.48047 0.17313,0.006 1.52027,1.12096 2.99219,2.47852 1.47192,1.35755 2.81434,2.47161 2.98437,2.47461 0.29189,0.006 2.89128,1.93013 4.00977,2.96875 0.28305,0.26285 0.66266,0.47851 0.84375,0.47851 0.18108,0 0.42534,0.30324 0.54297,0.67383 0.11932,0.37595 1.06064,0.9741 2.1289,1.35352 1.05306,0.37401 1.91407,0.84525 1.91407,1.04687 0,0.20164 0.17253,0.36719 0.38281,0.36719 0.21027,0 0.68475,0.26722 1.05273,0.5957 0.96789,0.86402 3.51021,2.46289 3.91797,2.46289 0.38347,0 2.91576,1.59429 3.82227,2.40625 0.31541,0.28251 1.39182,0.81664 2.39062,1.1875 0.99881,0.37086 1.81641,0.83252 1.81641,1.02539 0,0.19288 0.32199,0.34961 0.7168,0.34961 0.39479,0 0.93159,0.25881 1.19335,0.57422 0.26177,0.31541 0.63839,0.57422 0.83594,0.57422 0.33247,0 1.62673,0.56203 6.61914,2.87305 1.05138,0.48669 2.945392,1.25836 4.207042,1.7168 1.26163,0.45844 2.98116,1.15668 3.82226,1.55078 0.8411,0.3941 2.26419,0.87691 3.16211,1.07226 0.89793,0.19535 2.02069,0.60775 2.49414,0.91797 0.47346,0.31022 1.58664,0.68787 2.47461,0.83789 0.88797,0.15002 1.71143,0.42912 1.83008,0.6211 0.11865,0.19198 0.60515,0.3496 1.08008,0.3496 0.47493,0 2.14224,0.35697 3.70507,0.79297 1.56284,0.436 3.78686,0.95459 4.94336,1.15235 1.15651,0.19775 2.44664,0.52678 2.86719,0.73047 1.09954,0.53255 3.79843,1.05016 6.88281,1.32226 1.47193,0.12985 3.27772,0.4037 4.01368,0.60938 0.73596,0.20568 5.46708,0.6132 10.51367,0.90429 5.04659,0.2911 10.46591,0.4599 12.04297,0.375 1.57706,-0.0849 6.39445,-0.3336 10.70508,-0.55273 4.31062,-0.21912 8.26727,-0.5493 8.79296,-0.73438 0.52569,-0.18507 2.24716,-0.4494 3.82422,-0.58593 3.21852,-0.27862 6.49598,-0.89808 7.07227,-1.33594 0.21027,-0.15977 1.41413,-0.40739 2.67578,-0.55078 1.26165,-0.14339 2.83187,-0.50751 3.49023,-0.8086 0.65836,-0.30108 2.29357,-0.79929 3.63282,-1.10742 4.33235,-0.99675 6.23422,-1.55394 7.40429,-2.17187 0.63082,-0.33314 1.75037,-0.718 2.48633,-0.85547 0.73596,-0.13747 2.02609,-0.57634 2.86719,-0.97461 0.8411,-0.39826 2.56063,-1.09552 3.82226,-1.54883 1.26165,-0.45331 2.98312,-1.14834 3.82422,-1.54492 3.66905,-1.72995 6.71799,-3.05469 7.02735,-3.05469 0.18397,0 0.54877,-0.25881 0.81054,-0.57422 0.26177,-0.31541 0.79856,-0.57422 1.19336,-0.57422 0.39481,0 0.7168,-0.15673 0.7168,-0.34961 0,-0.19287 0.8176,-0.65453 1.81641,-1.02539 0.9988,-0.37086 2.07521,-0.90499 2.39062,-1.1875 0.90652,-0.81196 3.4388,-2.40625 3.82227,-2.40625 0.40776,0 2.95008,-1.59887 3.91797,-2.46289 0.36798,-0.32848 0.84246,-0.5957 1.05273,-0.5957 0.21028,0 0.38281,-0.16555 0.38281,-0.36719 0,-0.20162 0.86101,-0.67286 1.91407,-1.04687 1.06826,-0.37942 2.00958,-0.97757 2.1289,-1.35352 0.11763,-0.37059 0.36188,-0.67383 0.54297,-0.67383 0.18108,0 0.55612,-0.21566 0.83398,-0.47851 0.75901,-0.71797 3.47102,-2.74486 3.96485,-2.96289 0.39775,-0.17561 3.54477,-2.78089 5.13868,-4.25391 0.36974,-0.3417 0.84568,-0.68487 1.05664,-0.76367 0.4459,-0.16667 6.88782,-6.05436 10.00195,-9.14062 2.76314,-2.73841 8.97602,-9.52534 9.15235,-9.99805 0.16957,-0.45461 1.2905,-1.75806 3.40039,-3.95703 0.89367,-0.93141 1.625,-1.83544 1.625,-2.00782 0,-0.32657 2.11052,-3.3397 2.95508,-4.21875 0.26696,-0.27786 0.48632,-0.6529 0.48632,-0.83398 0,-0.18109 0.30324,-0.42534 0.67383,-0.54297 0.37595,-0.11932 0.9741,-1.06064 1.35352,-2.1289 0.37401,-1.05306 0.84525,-1.91407 1.04687,-1.91407 0.20164,0 0.36719,-0.2588 0.36719,-0.57422 0,-0.31541 0.17938,-0.57421 0.40039,-0.57421 0.221,0 0.64107,-0.57136 0.9336,-1.27149 0.29253,-0.70013 0.80134,-1.49573 1.1289,-1.76758 0.32756,-0.27185 0.5957,-0.72357 0.5957,-1.0039 0,-0.51359 1.45393,-2.92116 2.40625,-3.98438 0.28251,-0.31541 0.81664,-1.39182 1.1875,-2.39062 0.37086,-0.99881 0.83252,-1.81641 1.02539,-1.81641 0.19288,0 0.34961,-0.32199 0.34961,-0.7168 0,-0.3948 0.25881,-0.93159 0.57422,-1.19336 0.31541,-0.26177 0.57422,-0.63838 0.57422,-0.83593 0,-0.33246 0.56203,-1.62673 2.87305,-6.61914 0.48669,-1.05137 1.25836,-2.94539 1.7168,-4.20704 0.45844,-1.26163 1.15668,-2.98116 1.55078,-3.82226 0.3941,-0.8411 0.87691,-2.26419 1.07226,-3.16211 0.19535,-0.89793 0.60775,-2.02069 0.91797,-2.49414 0.31022,-0.47346 0.68787,-1.58664 0.83789,-2.47461 0.15002,-0.88797 0.42912,-1.71143 0.6211,-1.83008 0.19198,-0.11865 0.3496,-0.60515 0.3496,-1.08008 0,-0.47493 0.35802,-2.14224 0.79493,-3.70507 0.43692,-1.56284 0.96892,-3.87312 1.18359,-5.13477 0.21467,-1.26165 0.52307,-2.46551 0.68359,-2.67578 0.75272,-0.98605 1.73114,-8.06322 2.53711,-18.35156 0.61568,-7.85934 0.44705,-27.45975 -0.27343,-31.78125 -0.42963,-2.57695 -0.54585,-3.37223 -1.33008,-9.12696 -0.31521,-2.31303 -0.78039,-4.37761 -1.03321,-4.58789 -0.2528,-0.21027 -0.51558,-1.2416 -0.58398,-2.29297 -0.0683,-1.05138 -0.44963,-2.88009 -0.84766,-4.0625 -0.39802,-1.18241 -0.83987,-2.90192 -0.98046,-3.82226 -0.14059,-0.92034 -0.38804,-1.84636 -0.55079,-2.05664 -0.16275,-0.21027 -0.41988,-1.06906 -0.57226,-1.91016 -0.15239,-0.84109 -0.59812,-2.16906 -0.99024,-2.94922 -0.39212,-0.78015 -0.71289,-1.73272 -0.71289,-2.11719 0,-0.38446 -0.34892,-1.3799 -0.77539,-2.21289 -0.42648,-0.83299 -1.02117,-2.2901 -1.32031,-3.23632 -0.8881,-2.8092 -1.53572,-4.46441 -1.96289,-5.019532 -0.22105,-0.287268 -0.62541,-1.125366 -0.89844,-1.861328 -0.27303,-0.735961 -0.80926,-2.026088 -1.1914,-2.867187 -0.38214,-0.841098 -0.87779,-1.958689 -1.10157,-2.484375 -0.22378,-0.525687 -0.7764,-1.558961 -1.22851,-2.294922 -0.76721,-1.24889 -1.70574,-2.975346 -4.3125,-7.935547 -0.5811,-1.105731 -1.21187,-2.106882 -1.40235,-2.224609 -0.19049,-0.117731 -0.59303,-0.805762 -0.89453,-1.527343 -0.3015,-0.721582 -0.73017,-1.310547 -0.95117,-1.310547 -0.22101,0 -0.40039,-0.258807 -0.40039,-0.574219 0,-0.315411 -0.16555,-0.574218 -0.36719,-0.574218 -0.20162,0 -0.66796,-0.849311 -1.03711,-1.888672 -0.36915,-1.039357 -0.96196,-2.029497 -1.3164,-2.199219 -0.72946,-0.349294 -3.39649,-3.746499 -3.39649,-4.326172 0,-0.208455 -0.13256,-0.378906 -0.29297,-0.378906 -0.16041,0 -0.46039,-0.327732 -0.66796,-0.728516 -0.20757,-0.400783 -1.45104,-1.9909 -2.76368,-3.535156 -1.31263,-1.544257 -3.37724,-3.995458 -4.58789,-5.445314 -1.21066,-1.449854 -2.51302,-2.91252 -2.89258,-3.25 -0.37955,-0.337479 -3.46966,-3.322941 -6.86718,-6.634765 -3.39753,-3.311825 -6.30313,-6.021485 -6.45703,-6.021485 -0.1539,0 -1.54981,-1.074456 -3.10157,-2.388672 -1.55175,-1.314216 -3.30543,-2.733747 -3.89844,-3.154296 -0.59301,-0.42055 -1.63561,-1.238151 -2.31641,-1.816407 -0.6808,-0.578254 -1.40297,-1.050781 -1.60547,-1.050781 -0.20249,0 -0.67354,-0.337484 -1.04687,-0.75 -0.37332,-0.412515 -1.38848,-1.120166 -2.25586,-1.572266 -0.86737,-0.452099 -2.12574,-1.27534 -2.79492,-1.830078 -1.45762,-1.208332 -3.86983,-2.730468 -4.33008,-2.730468 -0.35107,0 -4.26466,-2.319016 -4.58789,-2.718751 -0.10514,-0.130022 -0.6208,-0.368231 -1.14649,-0.529297 -0.52568,-0.161065 -1.41256,-0.612898 -1.9707,-1.00586 -0.55815,-0.392962 -1.18209,-0.714843 -1.38672,-0.714843 -0.20464,0 -0.56336,-0.230339 -0.79688,-0.511719 -0.23351,-0.28138 -1.15851,-0.729093 -2.05468,-0.994141 -0.89617,-0.265047 -1.89752,-0.719693 -2.22656,-1.011718 -0.32905,-0.292026 -1.27605,-0.577603 -2.10352,-0.632813 l -1.50391,-0.09961 -0.0996,16.978516 c -0.1084,18.479708 -0.12326,18.339061 2.03125,19.158203 0.51468,0.195686 0.93555,0.532569 0.93555,0.748047 0,0.215478 0.24313,0.390625 0.54102,0.390625 0.29789,0 0.59982,0.129404 0.66992,0.28711 0.0701,0.157705 0.87891,0.690217 1.79687,1.183593 0.91796,0.493374 2.66523,1.654098 3.88282,2.58008 1.21757,0.925977 2.40081,1.683593 2.63085,1.683593 0.23005,0 0.41797,0.258806 0.41797,0.574219 0,0.315412 0.22906,0.574219 0.50782,0.574219 0.27876,0 0.91043,0.429391 1.40429,0.955078 0.49386,0.525686 1.09367,0.955078 1.33203,0.955078 0.75891,0 12.04883,10.592732 12.04883,11.304687 0,0.230117 0.38821,0.627535 0.86133,0.882813 0.47311,0.255281 1.72012,1.501756 2.77149,2.76953 1.05136,1.267777 2.64148,3.18399 3.53515,4.259766 0.89368,1.075772 1.62501,2.181621 1.62501,2.457031 0,0.275411 0.25881,0.501953 0.57422,0.501953 0.31541,0 0.57422,0.215477 0.57422,0.480469 0,0.264993 0.39163,0.910056 0.87109,1.433594 1.22957,1.342591 4.09766,5.821918 4.09766,6.398437 0,0.264598 0.17254,0.480469 0.38281,0.480469 0.21028,0 0.38281,0.256854 0.38281,0.572266 0,0.315411 0.15864,0.574218 0.35352,0.574218 0.19487,0 0.65271,0.558796 1.01562,1.242188 1.99969,3.76564 2.83299,5.49291 2.83399,5.86718 7.9e-4,0.23025 0.33551,0.722 0.74414,1.0918 0.40864,0.36981 0.8531,1.16879 0.98633,1.77539 0.13324,0.60662 0.39551,1.19798 0.58398,1.31446 0.44276,0.27364 1.2766,2.11905 2.15235,4.76562 0.38269,1.15651 0.7832,2.18978 0.88867,2.29492 0.90687,0.90398 3.57442,8.72169 4.20508,12.32227 0.23083,1.31785 0.67256,2.94407 0.98046,3.61328 0.30791,0.6692 0.74442,2.64752 0.97071,4.39648 0.22628,1.74896 0.56921,3.52477 0.76172,3.94532 0.95531,2.08699 1.4433,6.58333 2.09765,19.30664 0.29054,5.6493 -0.43441,20.37491 -1.09179,22.17382 -0.85753,2.34661 -1.91816,7.92451 -1.60352,8.4336 0.12237,0.19802 0.0842,0.36128 -0.0859,0.36328 -0.31379,0.003 -1.40264,3.32683 -1.86133,5.68359 -0.19955,1.02525 -0.14462,1.22844 0.26758,0.98633 0.28533,-0.16759 0.22095,0.0371 -0.14453,0.45508 -0.36548,0.41792 -0.77599,1.35011 -0.91211,2.07227 -0.13612,0.72216 -0.63855,2.17323 -1.11523,3.2246 -0.47668,1.05137 -1.14452,2.90225 -1.48633,4.11133 -0.3418,1.20908 -0.7672,2.19727 -0.94531,2.19727 -0.17812,0 -0.43354,0.54465 -0.56641,1.20898 -0.20652,1.0326 -0.98218,2.84303 -3.41406,7.9668 -0.24951,0.52569 -0.6491,1.12762 -0.88672,1.33789 -0.23762,0.21028 -0.54638,0.87723 -0.6875,1.48242 -0.14112,0.60518 -0.85098,2.02845 -1.57617,3.16211 -0.7252,1.13367 -1.31836,2.23448 -1.31836,2.44727 0,0.21279 -0.25881,0.48638 -0.57422,0.60742 -0.31541,0.12104 -0.57227,0.46099 -0.57227,0.75391 0,0.2929 -0.17253,0.53124 -0.38281,0.53124 -0.21027,1e-5 -0.38281,0.24634 -0.38281,0.54688 0,0.62159 -2.75999,4.8975 -4.08789,6.33203 -0.48463,0.52354 -0.88086,1.16861 -0.88086,1.43359 0,0.265 -0.25881,0.48047 -0.57422,0.48047 -0.31541,0 -0.57422,0.1621 -0.57422,0.35938 0,0.71616 -2.11915,3.83426 -2.75196,4.04883 -0.35722,0.12113 -0.74809,0.53068 -0.86914,0.91211 -0.12106,0.38142 -1.3337,1.76476 -2.69532,3.07226 -1.3616,1.30749 -2.47656,2.47831 -2.47656,2.60352 0,0.31446 -3.95421,4.29192 -4.26953,4.29492 -0.14023,0.001 -1.32337,1.11691 -2.63086,2.47851 -1.3075,1.36162 -2.69084,2.57426 -3.07226,2.69532 -0.38143,0.12105 -0.79098,0.51192 -0.91211,0.86914 -0.21457,0.63281 -3.33267,2.75195 -4.04883,2.75195 -0.19728,0 -0.35938,0.25881 -0.35938,0.57422 0,0.31541 -0.21371,0.57708 -0.47656,0.58008 -0.26284,0.003 -1.06738,0.52388 -1.78711,1.1582 -1.51701,1.33697 -5.47463,3.80469 -6.10156,3.80469 -0.23534,0 -0.42774,0.17254 -0.42774,0.38281 1e-5,0.21028 -0.25684,0.38281 -0.57226,0.38281 -0.31541,0 -0.57422,0.17766 -0.57422,0.39454 0,0.21686 -0.30194,0.50621 -0.66992,0.64453 -0.36798,0.13832 -1.5287,0.79841 -2.58008,1.46679 -1.05137,0.66839 -2.4702,1.33892 -3.15234,1.48828 -0.68214,0.14936 -1.37034,0.47199 -1.5293,0.71875 -0.15896,0.24675 -0.71845,0.65198 -1.24414,0.90039 -4.71009,2.22587 -7.086,3.23986 -8.04492,3.43165 -0.62202,0.1244 -1.13086,0.37266 -1.13086,0.55078 0,0.17811 -0.98819,0.60351 -2.19727,0.94531 -1.20908,0.34181 -3.09267,1.03389 -4.18359,1.53906 -1.09093,0.50516 -2.23995,0.91797 -2.55469,0.91797 -0.31475,0 -1.0565,0.19259 -1.64844,0.42773 -0.59194,0.23515 -1.6781,0.48891 -2.41406,0.5625 -1.71447,0.17144 -5.72842,1.40993 -5.73242,1.76954 -0.002,0.1511 -0.24269,0.18255 -0.53516,0.0703 -0.63992,-0.24556 -6.49879,0.91137 -8.26172,1.63086 -0.91913,0.37512 -1.64852,0.43403 -10.70507,0.85937 -11.02402,0.51774 -23.12831,0.0311 -28.09961,-1.1289 -5.58603,-1.30345 -7.12514,-1.57713 -7.6875,-1.36133 -0.29247,0.11222 -0.53316,0.0808 -0.53516,-0.0703 -0.003,-0.28548 -3.43727,-1.38898 -5.68359,-1.82618 -1.02525,-0.19955 -1.22844,-0.14462 -0.98633,0.26758 0.16759,0.28533 -0.0372,0.22095 -0.45508,-0.14453 -0.41792,-0.36548 -1.35011,-0.77599 -2.07227,-0.91211 -0.72216,-0.13612 -2.17323,-0.63855 -3.2246,-1.11523 -1.05137,-0.47668 -2.90225,-1.14452 -4.11133,-1.48633 -1.20908,-0.3418 -2.19727,-0.7672 -2.19727,-0.94531 0,-0.17812 -0.50884,-0.42638 -1.13086,-0.55078 -0.95892,-0.19179 -3.33483,-1.20578 -8.04492,-3.43165 -0.52569,-0.24841 -1.08518,-0.65364 -1.24414,-0.90039 -0.15896,-0.24676 -0.84716,-0.56939 -1.5293,-0.71875 -0.68214,-0.14936 -2.147832,-0.85237 -3.255862,-1.56054 -1.10802,-0.70817 -2.1876,-1.28711 -2.40039,-1.28711 -0.21279,0 -0.48639,-0.25881 -0.60742,-0.57422 -0.12104,-0.31541 -0.45904,-0.57227 -0.75195,-0.57227 -0.29292,0 -0.53321,-0.17253 -0.53321,-0.38281 0,-0.21027 -0.1924,-0.38281 -0.42773,-0.38281 -0.62694,0 -4.58456,-2.46772 -6.10156,-3.80469 -0.71974,-0.63432 -1.52427,-1.1552 -1.78711,-1.1582 -0.26285,-0.003 -0.47657,-0.26467 -0.47657,-0.58008 0,-0.31541 -0.16209,-0.57422 -0.35937,-0.57422 -0.71616,0 -3.83425,-2.11914 -4.04883,-2.75195 -0.12112,-0.35722 -0.53068,-0.74809 -0.91211,-0.86914 -0.38142,-0.12106 -1.76477,-1.3337 -3.07226,-2.69532 -1.30749,-1.3616 -2.47831,-2.47656 -2.60352,-2.47656 -0.31446,0 -4.29222,-3.95421 -4.29492,-4.26953 -10e-4,-0.14023 -1.1169,-1.32337 -2.47852,-2.63086 -1.36162,-1.3075 -2.57425,-2.69084 -2.69531,-3.07226 -0.12106,-0.38143 -0.51192,-0.79098 -0.86914,-0.91211 -0.63281,-0.21457 -2.75195,-3.33267 -2.75195,-4.04883 0,-0.19728 -0.25881,-0.35938 -0.57422,-0.35938 -0.31541,0 -0.57422,-0.21547 -0.57422,-0.48047 0,-0.26498 -0.39623,-0.91005 -0.88086,-1.43359 -1.3279,-1.43453 -4.08789,-5.71044 -4.08789,-6.33203 0,-0.30054 -0.17254,-0.54688 -0.38282,-0.54688 -0.21027,0 -0.38281,-0.25684 -0.38281,-0.57226 0,-0.31541 -0.17766,-0.57422 -0.39453,-0.57422 -0.21688,0 -0.50621,-0.30194 -0.64453,-0.66992 -0.13832,-0.36798 -0.82646,-1.56872 -1.52734,-2.66992 -0.70089,-1.10121 -1.37544,-2.51196 -1.5,-3.13477 -0.12457,-0.62282 -0.55085,-1.42641 -0.94727,-1.78515 -0.39641,-0.35875 -0.7207,-0.80054 -0.7207,-0.98243 0,-0.1819 -0.68724,-1.76373 -1.52735,-3.51562 -0.84011,-1.7519 -1.63516,-3.72858 -1.76758,-4.39063 -0.1324,-0.66205 -0.38633,-1.20312 -0.56445,-1.20312 -0.17811,0 -0.6035,-0.98819 -0.94531,-2.19727 -0.34181,-1.20908 -1.03585,-3.09267 -1.54102,-4.18359 -0.50516,-1.09093 -0.91797,-2.23995 -0.91797,-2.55469 0,-0.31475 -0.19258,-1.0565 -0.42773,-1.64844 -0.23515,-0.59194 -0.48891,-1.6781 -0.5625,-2.41406 -0.17939,-1.79393 -1.41768,-5.72842 -1.80469,-5.73242 -0.17011,-0.002 -0.20832,-0.16526 -0.0859,-0.36328 0.24895,-0.40282 -0.14436,-2.75903 -1.3086,-7.84766 -1.17369,-5.12983 -1.69069,-17.53223 -1.17187,-28.11133 0.22711,-4.63096 0.55686,-8.80452 0.73242,-9.27539 0.17555,-0.47086 0.44418,-1.71621 0.59765,-2.76757 0.15348,-1.05138 0.40895,-2.08465 0.56836,-2.29493 0.15941,-0.21027 0.50118,-1.92978 0.75782,-3.82226 0.25663,-1.89247 0.69302,-3.95707 0.9707,-4.58789 0.27768,-0.63083 0.79236,-2.43857 1.14258,-4.01563 0.62407,-2.81031 0.99144,-4.00513 1.94531,-6.30859 0.26123,-0.63083 0.73053,-1.92096 1.04297,-2.86719 0.98313,-2.97749 3.21174,-8.01854 3.86133,-8.73633 0.34301,-0.37903 0.62304,-0.93762 0.62304,-1.24023 0,-0.30261 0.40349,-1.14865 0.89649,-1.88086 0.493,-0.7322 1.01743,-1.82645 1.16601,-2.43164 0.14859,-0.60518 0.83217,-1.98158 1.51758,-3.058593 0.68542,-1.077011 1.35973,-2.258972 1.49805,-2.626953 0.13832,-0.36798 0.42765,-0.669922 0.64453,-0.669922 0.21687,0 0.39453,-0.258807 0.39453,-0.574218 0,-0.315412 0.17254,-0.572266 0.38281,-0.572266 0.21028,0 0.38282,-0.192399 0.38282,-0.427734 0,-0.571469 2.41474,-4.523253 3.51758,-5.75586 0.48306,-0.539912 1.18938,-1.362833 1.57031,-1.828125 0.41039,-0.501279 0.93263,-0.752921 1.28125,-0.61914 0.89573,0.343721 2.53885,1.783259 3.78711,3.320312 0.61685,0.759565 1.5955,1.6556 2.17383,1.990234 0.57833,0.334639 1.24812,1.042837 1.49023,1.574219 0.24212,0.531384 0.74907,1.063657 1.12696,1.183594 0.37788,0.119937 0.78308,0.511919 0.89843,0.869141 0.11536,0.357226 0.72599,0.942542 1.35742,1.300781 0.63144,0.358243 1.34578,1.085804 1.5879,1.617187 0.24211,0.531383 0.75784,1.066103 1.14648,1.189454 0.38864,0.123346 0.70703,0.358525 0.70703,0.521484 0,0.162965 1.64614,1.914395 3.6582,3.892575 2.01207,1.97819 3.861,3.8096 4.10938,4.07031 0.24838,0.26072 2.05613,2.06846 4.01562,4.01563 1.9595,1.94717 3.76529,3.76224 4.01368,4.03515 0.24838,0.27292 0.68637,0.70427 0.97265,0.95703 0.61608,0.54397 2.3405,2.25889 3.01172,2.9961 1.40685,1.54517 2.31985,2.2831 2.4707,1.99414 0.0933,-0.17876 0.38895,-1.10065 0.65821,-2.04688 0.26925,-0.94623 0.72672,-2.40694 1.01562,-3.24804 0.2889,-0.8411 0.596952,-2.59466 0.685552,-3.89453 0.0886,-1.29988 0.2455,-2.50374 0.34766,-2.67579 0.10215,-0.17203 0.30221,-1.08697 0.44336,-2.0332 0.37246,-2.49683 1.3876,-6.62779 1.73828,-7.07226 0.1659,-0.21028 0.41486,-1.672941 0.55273,-3.250001 0.13786,-1.577059 0.57886,-3.984778 0.98047,-5.351562 0.40162,-1.366785 0.90979,-3.776456 1.12891,-5.353516 0.21912,-1.577058 0.55148,-3.727924 0.73828,-4.779297 0.23516,-1.323739 0.20907,-1.993414 -0.084,-2.177734 -0.11356,-0.07143 -0.1299,-0.142676 -0.12304,-0.214844 0.005,-0.02732 0.0102,-0.048 0.0156,-0.07422 0.0522,-0.0778 0.15008,-0.154948 0.3418,-0.228515 0.36208,-0.138946 0.65916,-0.621643 0.66016,-1.072265 10e-4,-0.450618 0.23867,-1.268885 0.52539,-1.818359 0.28671,-0.549475 0.64308,-2.308782 0.79296,-3.908203 0.14988,-1.599422 0.53204,-3.815421 0.84961,-4.925782 0.31757,-1.110361 0.73921,-3.137121 0.93555,-4.503906 0.19634,-1.366785 0.51398,-2.82945 0.70703,-3.25 0.19305,-0.420548 0.54459,-2.313349 0.78125,-4.205079 0.23667,-1.891729 0.66371,-3.954372 0.94922,-4.585937 0.28552,-0.631566 0.62741,-2.095444 0.75977,-3.251954 0.31607,-2.761723 0.95961,-6.115328 1.35742,-7.072265 0.17482,-0.420549 0.49532,-1.883216 0.71094,-3.25 1.28036,-8.116141 1.6869,-10.24952 2.14843,-11.279297 0.28273,-0.630823 0.62958,-2.264075 0.77149,-3.630861 0.14192,-1.366784 0.5211,-3.431379 0.84179,-4.58789 0.3207,-1.15651 0.78621,-3.393644 1.03516,-4.970703 0.24896,-1.57706 0.55865,-3.1259938 0.6875,-3.4414058 0.41072,-1.005393 1.10751,-6.870457 0.86328,-7.265625 -0.14393,-0.232882 -0.57496,-0.359493 -0.96875,-0.371094 z" />
  </g>
</svg>
